<!DOCTYPE svg PUBLIC "-//W3C//DTD SVG 1.1//EN" "http://www.w3.org/Graphics/SVG/1.1/DTD/svg11.dtd">
<!-- Uploaded to: SVG Repo, www.svgrepo.com, Transformed by: SVG Repo Mixer Tools -->
<svg width="211px" height="211px" viewBox="-19.76 -19.76 143.52 143.52" version="1.1" xmlns="http://www.w3.org/2000/svg" xmlns:xlink="http://www.w3.org/1999/xlink" fill="#000000" transform="rotate(180)matrix(1, 0, 0, -1, 0, 0)" stroke="#000000">
<g id="SVGRepo_bgCarrier" stroke-width="0">
<path transform="translate(-19.76, -19.76), scale(8.97)" fill="#4962df" d="M9.166.33a2.25 2.25 0 00-2.332 0l-5.25 3.182A2.25 2.25 0 00.5 5.436v5.128a2.25 2.25 0 001.084 1.924l5.25 3.182a2.25 2.25 0 002.332 0l5.25-3.182a2.25 2.25 0 001.084-1.924V5.436a2.25 2.25 0 00-1.084-1.924L9.166.33z" strokewidth="0"/>
</g>
<g id="SVGRepo_tracerCarrier" stroke-linecap="round" stroke-linejoin="round" stroke="#CCCCCC" stroke-width="1.6640000000000001"/>
<g id="SVGRepo_iconCarrier"> <!-- Uploaded to: SVG Repo, www.svgrepo.com, Transformed by: SVG Repo Mixer Tools --> <title>1-multimeda-volume</title> <desc>Created with Sketch.</desc> <defs> </defs> <g id="3.Multimedia" stroke-width="4.888" fill="none" fill-rule="evenodd" stroke-linecap="round" stroke-linejoin="round"> <g id="Multimedia-(Color)" transform="translate(-99.000000, -100.000000)" stroke="#ffffff" stroke-width="4.888" fill="#259DDB"> <g id="1-multimeda-volume" transform="translate(100.000000, 102.000000)"> <path d="M0.980392157,52 L0.980392157,48" id="Layer-1"> </path> <path d="M10.7843137,54 L10.7843137,46" id="Layer-2"> </path> <path d="M20.5882353,70.0688837 L20.5882353,30" id="Layer-3"> </path> <path d="M30.3921569,80.0089279 L30.3921569,20" id="Layer-4"> </path> <path d="M40.1960784,100 L40.1960784,0" id="Layer-5"> </path> <path d="M50,70 L50,30" id="Layer-6"> </path> <path d="M59.8039216,64 L59.8039216,36" id="Layer-7"> </path> <path d="M69.6078431,74.5325933 L69.6078431,26.4973984" id="Layer-8"> </path> <path d="M79.4117647,61 L79.4117647,39" id="Layer-9"> </path> <path d="M89.2156863,59 L89.2156863,41" id="Layer-10"> </path> <path d="M99.0196078,63 L99.0196078,37" id="Layer-11"> </path> </g> </g> </g> </g>
</svg>